<?xml version="1.0" encoding="UTF-8"?>
<svg id="Layer_1" data-name="Layer 1" xmlns="http://www.w3.org/2000/svg" version="1.1" viewBox="0 0 288 104">
  <defs>
    <style>
      .cls-1 {
        fill: none;
        stroke: #b16b33;
        stroke-miterlimit: 10;
        stroke-width: 2px;
      }

      .cls-2 {
        fill: #508b71;
      }

      .cls-2, .cls-3 {
        stroke-width: 0px;
      }

      .cls-3 {
        fill: #0f5138;
      }
    </style>
  </defs>
  <g>
    <path class="cls-2" d="M35.3,45.6c-.2,0-.4,0-.5-.3,0-.2-.2-.4-.2-.6,0-.4,0-.7.3-.7h.7c.8,0,1.4-.1,1.8-.4.3-.3.6-.7.6-1.1v-18.3c0-.5-.3-.8-.6-1.1s-.9-.4-1.8-.4-.5,0-.7,0-.3-.3-.3-.7,0-.4.2-.6c0-.2.3-.3.5-.3h16c.3,0,.5,0,.7.2.2.1.3.4.3.7v5.5c0,.3,0,.5-.3.6-.2.1-.5.2-.7.2s-.6,0-.8-.2c-.2-.1-.4-.3-.4-.5-.2-1.2-.4-2.1-.6-2.8-.2-.7-.6-1.2-1.1-1.6-.5-.3-1.2-.5-2.1-.5h-4.3v10.1h7c.2,0,.4.1.5.3s.2.4.2.6,0,.4-.2.5c0,.2-.3.3-.5.3h-7v6.7c0,.5,0,1,.2,1.4,0,.5.3.8.6,1.1s.9.4,1.7.4.5,0,.7,0,.3.3.3.7,0,.4-.2.6c0,.2-.3.3-.5.3-1.7,0-3.3-.1-4.8-.1h-4.7Z"/>
    <path class="cls-2" d="M56.3,45.6c-.2,0-.4,0-.5-.3,0-.2-.2-.4-.2-.6,0-.4,0-.7.3-.7h.7c.8,0,1.4-.1,1.8-.4.3-.3.6-.7.6-1.1v-18.3c0-.5-.3-.8-.6-1.1s-.9-.4-1.8-.4-.5,0-.7,0-.3-.3-.3-.7,0-.4.2-.6c0-.2.3-.3.5-.3h16.9c.3,0,.5,0,.7.2.2.1.3.4.3.7v5.5c0,.3,0,.5-.3.6s-.5.2-.7.2-.5,0-.8-.2c-.2-.1-.4-.3-.4-.5-.2-1.2-.4-2.1-.6-2.8s-.6-1.2-1.1-1.6c-.5-.3-1.2-.5-2.1-.5h-5.2v9.9h7.1c.2,0,.4.1.4.3v1.1c0,.2-.2.3-.4.3h-7.1v7.4c0,.3,0,.7.2,1.1s.3.7.7,1,1,.4,1.9.4h3.6c.9,0,1.6-.2,2.1-.4.5-.3.9-.7,1.2-1.4.3-.7.6-1.5.9-2.7,0-.3.3-.4.5-.5h.8c.2,0,.4.1.6.3s.3.4.3.6l-.8,4.9c0,.4-.2.6-.4.7-.2,0-.4.1-.8.1h-17.6v-.2h.1Z"/>
    <path class="cls-2" d="M80.4,45.6c-.3,0-.4,0-.5-.3,0-.2-.2-.4-.2-.6,0-.4,0-.7.3-.7h.7c.8,0,1.4-.1,1.8-.4.3-.3.6-.7.6-1.1v-18.2c0-.5-.3-.9-.6-1.2-.3-.3-.9-.4-1.8-.4s-.5,0-.7,0-.3-.3-.3-.7,0-.4.2-.6c0-.2.3-.3.5-.3h11.4c2.1,0,3.8.4,5.1,1,1.3.6,2.3,1.4,2.9,2.4s.9,2,.9,3-.6,2.7-1.7,3.9-2.7,2.1-4.7,2.6c1,1.6,2,3.1,3,4.7,1,1.6,2.2,3,3.5,4.4.4.3.7.5,1.1.7s.8.3,1.3.4h.6c.2,0,.3.3.4.7,0,.2,0,.4-.2.6,0,.2-.3.3-.5.3h-3.5c-1.1-.2-2-.6-2.7-1.1s-1.5-1.3-2.2-2.3-1.4-2-2-3-1.2-2-1.8-3-.7-.9-1-1.2c-.4-.2-1-.4-2-.4h-1.1v6.4c0,.5,0,1,.2,1.4,0,.5.3.8.6,1.1s.9.4,1.7.4.5,0,.7,0,.3.3.3.7,0,.4-.2.6c0,.2-.3.3-.5.3-1.7,0-3.3-.1-4.9-.1h-4.7ZM87.1,33.1h3.4c1.3,0,2.4-.2,3.1-.5.8-.4,1.3-.8,1.7-1.4s.6-1.2.8-1.8c0-.6.2-1.2.2-1.7,0-.9-.2-1.7-.6-2.5s-1-1.5-2-2c-.9-.5-2.3-.8-4-.8s-1.9.2-2.2.6c-.4.4-.5,1.3-.5,2.6v7.5h0Z"/>
    <path class="cls-2" d="M107.6,45.6c-.3,0-.4,0-.5-.3,0-.2-.2-.4-.2-.6,0-.4,0-.7.3-.7h.7c.8,0,1.4-.1,1.7-.4s.5-.7.6-1.1v-16.9c0-1.2,0-2-.5-2.3s-1.1-.6-2-.8c-.4,0-.6-.1-.8-.2,0,0-.2-.3-.2-.7s.2-.7.5-.7h1.1c1.5,0,2.6.1,3.5.4s1.7.7,2.4,1.2c.7.6,1.4,1.4,2.2,2.5l10.7,14h0v-13.4c0-.5,0-1-.2-1.4,0-.5-.3-.8-.6-1.1-.3-.3-.9-.4-1.7-.4s-.5,0-.7,0-.3-.3-.4-.7c0-.2,0-.4.2-.6,0-.2.3-.3.5-.3h7.4c.3,0,.4,0,.5.3.1.2.2.4.2.6,0,.4-.1.7-.3.7h-.7c-.8,0-1.4.2-1.7.4-.3.3-.5.7-.6,1.1,0,.5-.1.9-.1,1.4v19.7c-.1.2-.2.3-.4.4h-.6c-.5,0-.9-.2-1.1-.5l-14.7-19.7h0v15.5c0,.5,0,1,.2,1.4,0,.5.3.8.6,1.1s.9.4,1.7.4.5,0,.7,0,.3.3.3.7,0,.4-.2.6-.3.3-.5.3h-7.5.2Z"/>
    <path class="cls-2" d="M144.9,46.3c-2.7,0-4.8-.5-6.2-1.4-1.5-.9-2.2-2.3-2.2-4.2s.3-1.7,1-2.3c.6-.6,1.5-.9,2.5-.9s1.2.2,1.4.5c.3.3.4.5.4.7s-.1.1-.4.3c-.2.1-.5.3-.7.6s-.4.8-.4,1.4c0,1.2.4,2.1,1.1,2.8s1.9,1,3.5,1,2.1-.2,2.9-.6c.8-.4,1.4-1,1.8-1.7.4-.7.6-1.4.6-2.1,0-1.1-.3-2-.9-2.7s-1.4-1.3-2.4-1.8-2.1-1-3.2-1.5c-1.1-.5-2.2-1-3.2-1.6s-1.8-1.3-2.5-2.2-1-2-1-3.4.3-3,1.1-4c.7-1,1.7-1.8,3-2.3s2.7-.7,4.3-.7,2.3.2,3.5.5,2.1.9,2.8,1.6c.7.7,1.1,1.7,1.1,2.8s-.3,1.7-1,2.3-1.5.9-2.5.9-1.2-.2-1.4-.5c-.3-.3-.4-.5-.4-.7s.2-.2.5-.3.6-.3.9-.6.5-.7.5-1.3c0-1-.4-1.7-1.1-2.3-.8-.5-1.7-.8-2.8-.8-1.7,0-2.9.4-3.7,1.2s-1.2,1.7-1.2,2.7.3,1.7.8,2.3,1.3,1.2,2.3,1.8c1.2.6,2.4,1.2,3.5,1.7,1.2.5,2.3,1.1,3.3,1.8s1.9,1.5,2.5,2.4.9,2.2.9,3.8-.4,2.5-1.2,3.5-1.9,1.9-3.3,2.5c-1.4.6-2.9.9-4.6.9h0Z"/>
    <path class="cls-2" d="M170.8,46.3c-2.2,0-4.2-.5-6-1.6-1.8-1-3.3-2.5-4.4-4.4-1.1-1.9-1.7-4.2-1.7-6.9s.5-5,1.6-7c1-2,2.5-3.5,4.4-4.6s4.2-1.7,6.8-1.7,1.9,0,2.9.3c1,.2,1.9.5,2.8.9.9.4,1.6,1,2.1,1.7s.8,1.6.8,2.6-.3,2.1-1,2.9c-.7.8-1.7,1.3-3,1.3s-1.3-.2-1.7-.6c-.3-.4-.5-.7-.4-.8,0,0,.2-.2.5-.4s.6-.5,1-.9c.3-.4.5-.9.5-1.6,0-1.2-.4-2.1-1.2-2.8s-1.9-1-3.3-1-3,.4-4.2,1.3c-1.2.9-2.2,2.2-2.9,3.9s-1.1,3.8-1.1,6.3.4,4,1.1,5.7c.7,1.7,1.8,3.1,3.1,4.1s2.9,1.5,4.7,1.5,2.6-.3,3.6-.9c1-.6,1.9-1.5,2.7-2.8.2-.4.6-.5,1.2-.1.2.2.4.3.5.6.1.2.1.4,0,.7-1,1.2-1.9,2.2-2.8,2.8s-1.8,1.1-2.9,1.3c-1,.2-2.3.3-3.7.3h0Z"/>
    <path class="cls-2" d="M183,45.6c-.3,0-.4,0-.5-.3-.1-.2-.2-.4-.2-.6,0-.4.1-.7.3-.7h.7c.7,0,1.2-.1,1.6-.4.4-.3.7-.7.9-1.1.2-.5.4-.9.6-1.4l6.8-16.1c.3-.6.3-1.1.2-1.4-.2-.3-.4-.6-.8-.7-.4-.1-.8-.3-1.2-.3s-.7-.1-.8-.2c-.1,0-.2-.3-.2-.7s.2-.7.5-.7h1.1c1.1,0,2,.1,2.7.3.8.2,1.4.6,1.9,1.2.5.6,1.1,1.5,1.5,2.6l6.6,16.1c.2.4.4.9.6,1.4.2.5.5.9.8,1.2s.8.5,1.3.5h.7c.2,0,.3.3.3.7s0,.4-.2.6c-.1.2-.3.3-.5.3h-4.3c-1.5,0-3.1,0-4.8.1-.3,0-.4,0-.5-.3-.1-.2-.2-.4-.2-.6,0-.4.1-.7.3-.7h.7c1.3,0,2-.2,2.1-.7s0-1.2-.4-2.3l-1.3-3.2h-9.6c-.4,1-.7,1.7-.8,2.1-.2.4-.3.7-.3.9v.2c-.3.9-.4,1.5-.4,2s.2.7.6.8c.4.1,1.2.2,2.2.2s.5,0,.7,0,.3.3.3.7,0,.4-.2.6c-.1.2-.3.3-.5.3h-8.1l-.2-.4h0ZM190.4,36h8.2l-3.9-10h-.1l-4.1,10h0Z"/>
    <path class="cls-2" d="M209.9,45.6c-.2,0-.4,0-.5-.3s-.2-.4-.2-.6c0-.4.1-.7.3-.7h.7c.8,0,1.4-.1,1.8-.4.3-.3.6-.7.6-1.1s.1-.9.1-1.4v-15.5c0-.5,0-1-.1-1.4,0-.5-.3-.8-.6-1.1s-.9-.4-1.8-.4-.5,0-.7,0-.3-.3-.3-.7,0-.4.2-.6.3-.3.5-.3h10.6c.5,0,1.1,0,1.9.1s1.6.2,2.5.5c.9.2,1.7.6,2.6,1.1.8.5,1.5,1.2,2,2.1.5.9.8,1.9.8,3.2s-.3,2.3-.8,3.3c-.6,1-1.3,1.8-2.2,2.5s-2,1.2-3.1,1.6c-1.2.4-2.3.6-3.5.6s-1.2,0-1.9-.1c-.7,0-1.4-.2-2-.5v5.6c0,.5,0,1,.2,1.4,0,.5.3.8.6,1.1s.9.4,1.7.4.5,0,.7,0,.3.3.3.7,0,.4-.2.6c-.1.2-.3.3-.5.3-1.7,0-3.3-.1-4.9-.1h-4.8ZM219.4,34.2c.6,0,1.3,0,2-.3.7-.2,1.5-.5,2.1-1,.7-.5,1.3-1.1,1.7-1.9.4-.8.7-1.8.7-3s-.3-2.4-.8-3.1c-.5-.8-1.2-1.3-1.9-1.7-.8-.4-1.5-.6-2.3-.7-.8-.1-1.4-.2-1.8-.2s-1.1,0-1.5.2c-.4.1-.6.4-.8.8-.1.4-.2,1.1-.2,2v8.4c.3.1.6.2,1.1.3.5,0,1,.1,1.6.1h0Z"/>
    <path class="cls-2" d="M234.2,45.6c-.2,0-.4,0-.5-.3-.1-.2-.2-.4-.2-.6,0-.4.1-.7.3-.7h.7c.8,0,1.4-.1,1.8-.4.3-.3.6-.7.6-1.1s.1-.9.1-1.4v-15.5c0-.5,0-1-.1-1.4,0-.5-.3-.8-.6-1.1s-.9-.4-1.8-.4-.5,0-.7,0-.3-.3-.3-.7,0-.4.2-.6c.1-.2.3-.3.5-.3h16.9c.3,0,.5,0,.7.2.2.1.3.4.3.7v5.5c.1.3,0,.5-.3.6s-.5.2-.7.2-.5,0-.8-.2c-.2-.1-.4-.3-.4-.5-.2-1.2-.4-2.1-.6-2.8-.2-.7-.6-1.2-1.1-1.6-.5-.3-1.2-.5-2.1-.5h-5.2v9.9h7.1c.2,0,.4.1.4.3s.1.4.1.6,0,.4-.1.5c0,.2-.2.3-.4.3h-7.1v7.4c0,.3,0,.7.2,1.1s.3.7.7,1,1,.4,1.9.4h3.6c.9,0,1.6-.2,2.1-.4.5-.3.9-.7,1.2-1.4s.6-1.5.9-2.7c.1-.3.3-.4.5-.5h.8c.2,0,.4.1.6.3.2.2.3.4.3.6l-.8,4.9c0,.4-.2.6-.4.7-.2,0-.4.1-.8.1h-17.6v-.2h.1Z"/>
    <path class="cls-3" d="M69.3,80.4c0,.3,0,.6-.4.8-.2.2-.5.3-.8.3s-.6-.1-.8-.3c-.2-.2-.3-.5-.3-.8v-13.2c0-.3,0-.6.3-.8.2-.2.5-.3.9-.3s.6.1.8.3c.2.2.3.5.3.8v13.2Z"/>
    <path class="cls-3" d="M89.9,66.1c.3,0,.5,0,.7.3.2.2.3.4.3.7v13.2c0,.3,0,.6-.3.8-.2.2-.5.3-.8.3h-.5c-.2,0-.3-.1-.4-.2l-9-11.7.5-.3v11.3c0,.3,0,.5-.3.7-.2.2-.4.3-.7.3s-.6,0-.7-.3c-.2-.2-.3-.4-.3-.7v-13.3c0-.3,0-.6.3-.8.2-.2.5-.3.8-.3h.5c.2,0,.3.2.4.3l8.8,11.5-.3.3v-11.2c0-.3,0-.5.3-.7.2-.2.4-.3.7-.3h0Z"/>
    <path class="cls-3" d="M100,68.2c-.3,0-.6,0-.8-.3-.2-.2-.3-.5-.3-.8s0-.6.3-.8c.2-.2.5-.3.8-.3h10c.3,0,.6,0,.8.3.2.2.3.5.3.8s0,.6-.3.8c-.2.2-.5.3-.8.3h-10ZM105,81.5c-.4,0-.6-.1-.9-.3-.2-.2-.3-.5-.3-.8v-13.2h2.4v13.2c0,.3,0,.6-.3.8-.2.2-.5.3-.8.3h0Z"/>
    <path class="cls-3" d="M120.2,66.1h7.6c.3,0,.6.1.8.3s.3.5.3.8-.1.6-.3.7c-.2.2-.5.3-.8.3h-6.6l.2-.4v4.9l-.2-.2h5.6c.3,0,.6.1.8.3.2.2.3.5.3.8s0,.6-.3.7c-.2.2-.5.3-.8.3h-5.6l.2-.2v5.1l-.2-.2h6.6c.3,0,.6.1.8.3s.3.5.3.7-.1.6-.3.8-.5.3-.8.3h-7.6c-.3,0-.6-.1-.8-.3-.2-.2-.3-.5-.3-.8v-13.2c0-.3,0-.6.3-.8.2-.2.5-.3.8-.3h0Z"/>
    <path class="cls-3" d="M138.5,81.5c-.4,0-.7-.1-.9-.3-.3-.2-.4-.5-.4-.8v-13.2c0-.3.1-.6.3-.8s.5-.3.8-.3h6.2c.8,0,1.5.2,2.2.6.7.4,1.2.9,1.6,1.6s.6,1.5.6,2.4-.1,1.1-.4,1.7c-.2.5-.5,1-.9,1.4s-.8.7-1.3.9l-.2-.4c.5.2.9.4,1.2.7s.6.7.8,1.1c.2.4.3.9.3,1.4s0,.8.1,1.1c0,.3,0,.5.2.7,0,.2.2.3.4.4.3.1.4.4.5.7,0,.3,0,.6-.2.8-.1.2-.3.3-.5.3h-.6c-.2,0-.4,0-.5-.2-.2-.1-.5-.4-.7-.6-.2-.3-.4-.6-.6-1.1-.1-.5-.2-1.1-.2-1.9s0-.7-.2-.9c-.1-.3-.3-.5-.5-.6-.2-.2-.4-.3-.7-.4-.3,0-.6-.1-.9-.1h-4.7l.3-.5v5.3c0,.3,0,.6-.3.8-.2.2-.4.3-.7.3h-.1ZM139.2,73.7h5.3c.3,0,.7-.1,1-.4.3-.2.6-.6.8-1s.3-.9.3-1.5-.2-1.3-.6-1.8c-.4-.5-.9-.7-1.5-.7h-5.1l.2-.5v6.4l-.3-.5h0Z"/>
    <path class="cls-3" d="M159.9,80.4c0,.3-.1.6-.4.8-.2.2-.5.3-.8.3s-.6-.1-.8-.3-.3-.5-.3-.8v-13.2c0-.3.1-.6.3-.8s.5-.3.9-.3.6.1.8.3.3.5.3.8v13.2Z"/>
    <path class="cls-3" d="M183,73.8c0,1.1-.2,2.2-.5,3.1-.4,1-.9,1.8-1.6,2.5-.7.7-1.5,1.3-2.4,1.7s-1.9.6-3,.6-2.1-.2-3-.6c-.9-.4-1.7-1-2.4-1.7s-1.2-1.6-1.6-2.5c-.4-1-.6-2-.6-3.1s.2-2.2.6-3.1c.4-1,.9-1.8,1.6-2.5s1.5-1.3,2.4-1.7,1.9-.6,3-.6,2.1.2,3,.6c.9.4,1.7,1,2.4,1.7s1.2,1.6,1.6,2.5c.4,1,.5,2,.5,3.1ZM180.7,73.8c0-1.1-.2-2.1-.7-2.9-.4-.9-1-1.5-1.8-2s-1.6-.7-2.6-.7-1.9.2-2.6.7c-.8.5-1.4,1.2-1.8,2-.4.9-.6,1.8-.6,2.9s.2,2.1.6,2.9,1,1.5,1.8,2,1.6.7,2.6.7,1.9-.2,2.6-.7c.8-.5,1.4-1.2,1.8-2,.4-.9.7-1.8.7-2.9Z"/>
    <path class="cls-3" d="M192.6,81.5c-.4,0-.7-.1-.9-.3-.3-.2-.4-.5-.4-.8v-13.2c0-.3.1-.6.3-.8s.5-.3.8-.3h6.2c.8,0,1.5.2,2.2.6.7.4,1.2.9,1.6,1.6s.6,1.5.6,2.4-.1,1.1-.4,1.7c-.2.5-.5,1-.9,1.4s-.8.7-1.3.9l-.2-.4c.5.2.9.4,1.2.7s.6.7.8,1.1c.2.4.3.9.3,1.4s0,.8.1,1.1c0,.3,0,.5.2.7,0,.2.2.3.4.4.3.1.4.4.5.7,0,.3,0,.6-.2.8-.1.2-.3.3-.5.3h-.6c-.2,0-.4,0-.5-.2-.2-.1-.5-.4-.7-.6-.2-.3-.4-.6-.6-1.1-.1-.5-.2-1.1-.2-1.9s0-.7-.2-.9c-.1-.3-.3-.5-.5-.6-.2-.2-.4-.3-.7-.4-.3,0-.6-.1-.9-.1h-4.7l.3-.5v5.3c0,.3,0,.6-.3.8-.2.2-.4.3-.7.3h-.1ZM193.3,73.7h5.3c.3,0,.7-.1,1-.4.3-.2.6-.6.8-1s.3-.9.3-1.5-.2-1.3-.6-1.8c-.4-.5-.9-.7-1.5-.7h-5.1l.2-.5v6.4l-.3-.5h0Z"/>
    <path class="cls-3" d="M216.5,81.7c-1.1,0-2-.1-2.8-.4s-1.6-.8-2.4-1.4c-.2-.1-.3-.3-.4-.5,0-.2-.1-.3-.1-.5,0-.3.1-.5.3-.7s.5-.3.8-.3.5,0,.7.2c.6.5,1.1.9,1.7,1.2.6.3,1.3.4,2.1.4s1.1,0,1.6-.3c.5-.2.9-.4,1.2-.8.3-.3.4-.7.4-1.1s-.2-1-.5-1.3-.7-.6-1.3-.9c-.6-.2-1.2-.4-2-.6-.7-.1-1.4-.3-2-.6-.6-.2-1.1-.5-1.5-.9s-.7-.8-.9-1.3-.3-1.1-.3-1.7.2-1.7.7-2.3c.5-.7,1.1-1.2,1.9-1.5.8-.4,1.7-.5,2.7-.5s1.8.1,2.6.4c.8.3,1.5.7,2,1.2.4.3.5.6.5,1s-.1.5-.3.7-.5.3-.7.3-.4,0-.5-.2c-.2-.2-.6-.5-.9-.7-.4-.2-.8-.4-1.3-.5-.4-.1-.9-.2-1.3-.2-.7,0-1.2,0-1.7.3s-.8.4-1.1.7c-.2.3-.4.7-.4,1.1s.1.9.4,1.2c.3.3.7.6,1.2.8s1.1.4,1.8.5c.8.2,1.5.4,2.2.6.6.2,1.2.5,1.6.8s.8.8,1,1.3.4,1.2.4,1.9-.2,1.7-.7,2.3c-.5.7-1.2,1.2-2,1.5-.8.4-1.7.6-2.7.6v.2Z"/>
  </g>
  <line class="cls-1" x1="34.6" y1="55.4" x2="253.7" y2="55.4"/>
</svg>