<?xml version="1.0" encoding="UTF-8"?>
<svg id="Layer_1" data-name="Layer 1" xmlns="http://www.w3.org/2000/svg" version="1.1" viewBox="0 0 54.9 60.1">
  <defs>
    <style>
      .cls-1 {
        fill: #0f5138;
        stroke-width: 0px;
      }
    </style>
  </defs>
  <path class="cls-1" d="M3.8,55.2c15.5-4.8,28.2-17.6,32.5-33.3,3-4.9,5.5-11.2,3.2-16.8h0c0,.2.3.4.6.4h.3s-.2,0-.2.2c-3.3,2.9-4.6,7.6-4.1,11.9.2,1.5.6,3.1,1,4.6h-.2c-2.9-5.5-2.5-13.2,2.3-17.7.6-.6,1.3-.6,1.6,0,2.8,6,.2,12.9-3.3,18.1-3.3,11.1-11.7,22-22.5,28-3.5,2.1-7.3,3.7-11.2,4.8v-.2h0,0Z"/>
  <path class="cls-1" d="M35.3,27.3c6.6.9,10.4-.8,14.3-6.2l.4,1.1c-2.9-.3-5.8,0-8.6.7-1.7.5-3.4,1.1-5,1.9h0c3.6-3.6,9.1-4.9,13.9-3.9l1.2.2-.8.9c-3,3.5-6.2,6-11.1,5.9-1.4,0-2.9-.3-4.3-.5v-.2h0Z"/>
  <path class="cls-1" d="M32.7,31.6c4.3-2.6,10.4-3.8,14.7-.4h-.8c0-.3,1.1-.1,1,.2,0,.2,0,.5-.2.6-4.1,4.5-11,4.8-16.4,2.9v-.2h4.2c3.8-.2,8.4-.7,11.2-3.4,0,0-.2.4,0,.5,0,.4,1,.5,1,.2h-.8c-2.8-2.5-6.8-2.6-10.3-1.7-1.2.3-2.4.8-3.5,1.3v-.2h0v.2Z"/>
  <path class="cls-1" d="M27.9,39.2c2.5-1.6,5.8-1.8,8.7-1.2,2,.4,3.8,1.4,5.5,2.3-.2.2-.5.7-.7.8-.5.4-1,.8-1.6,1.1-3.1,1.8-6.9,2.6-10.4,1.5-1.4-.4-2.7-1.1-3.8-1.8v-.2c2.7.8,5.2,1.2,7.9.9,2.5-.3,5.1-.9,7.1-2.5l.2.8c-3.7-2.5-8.8-3.9-12.9-1.7h0c0,0,.1,0,.1,0Z"/>
  <path class="cls-1" d="M22.5,44.7c5-.5,11.3.5,13.6,5.5-.9.5-1.9.7-2.9.8-2.3.4-4.5.5-6.8.3-3-.3-6-1.1-8.5-2.9v-.2c1.4.5,2.9.8,4.3,1,2.9.5,5.7.6,8.6.6s2.9,0,4.2-.5l-.3.8c-1.5-3.3-5.3-4.7-8.7-5.2-1.2-.2-2.4-.3-3.6-.2v-.2h0v.2Z"/>
  <path class="cls-1" d="M35.2,24.5c.4-3.6-1.5-7-3.9-9.5-.3-.2-.9-.8-1.1-1-.9-.8-2.3-1.7-3.3-2.4h.5c.2,0,0-.1,0,.1-.5,3.9,4.8,11.4,6.9,14.9h0c-1.1-.9-2.2-1.9-3.2-3.1-1.9-2.3-3.6-4.9-4.5-7.9-.3-1.2-1.1-4.4.4-5.1h.3s1.8,1.2,1.9,1.3c.9.8,1.9,1.6,2.7,2.5.2.3.8,1,1,1.2l.6.9c1.5,2.4,2.4,5.3,1.8,8h-.3.2Z"/>
  <path class="cls-1" d="M31.8,33.3c0-3.9-1.9-7.9-5.1-10.3-1-.8-2.2-1.4-3.4-1.9l.8-.5v.2c.2,3.8,1.5,7.5,3.6,10.6.7,1.1,1.6,2.1,2.5,3.1h0c-5.1-2.8-8.4-9.1-7.1-15,1.5.8,3,1.5,4.3,2.6,3.2,2.7,4.8,7,4.6,11.1h-.2,0Z"/>
  <path class="cls-1" d="M25.7,40.7c-.3-5.1-1.7-11.2-6.7-13.6l.7-.2c-.3.6-.4,1.2-.4,1.8-.3,5.1,2.5,9.7,5.4,13.7h0c-1.2-.8-2.3-1.9-3.2-3.1-2.8-3.4-4.4-8.3-2.9-12.6,0-.4.4-.8.6-1.1l.5.3c3.9,2,5.6,6.5,6.2,10.6.2,1.4.3,2.7.2,4.1h-.3Z"/>
  <path class="cls-1" d="M19.5,47.1c-.5-5.4-2.8-11.3-7.8-14.1,0,0,.3,0,.4,0,0,0,.2,0,.2,0,0,.2-.2.4-.2.6-.6,3.8.8,7.7,2.5,11.2.7,1.3,1.4,2.6,2.2,3.8h0c-4.2-3.6-7.1-9.6-5.7-15.3.2-.6.6-1.6,1.4-1.3,1.2.8,2.4,1.8,3.3,3,1.8,2.3,3,5.1,3.5,7.9.3,1.4.5,2.9.5,4.3h-.2Z"/>
</svg>