<?xml version="1.0" encoding="UTF-8"?>
<svg id="Layer_1" data-name="Layer 1" xmlns="http://www.w3.org/2000/svg" version="1.1" viewBox="0 0 288 216">
  <defs>
    <style>
      .cls-1 {
        fill: none;
        stroke: #b16b33;
        stroke-miterlimit: 10;
        stroke-width: 2px;
      }

      .cls-2 {
        fill: #508b71;
      }

      .cls-2, .cls-3 {
        stroke-width: 0px;
      }

      .cls-3 {
        fill: #0f5138;
      }
    </style>
  </defs>
  <g>
    <path class="cls-2" d="M35.3,157.6c-.2,0-.4,0-.5-.3-.1-.2-.2-.4-.2-.6,0-.4.1-.7.3-.7.2,0,.4,0,.7,0,.8,0,1.4-.1,1.8-.4.3-.3.6-.7.6-1.1,0-.5.1-.9.1-1.4v-15.5c0-.5,0-1-.1-1.4,0-.5-.3-.8-.6-1.1-.3-.3-.9-.4-1.8-.4s-.5,0-.7,0c-.2,0-.3-.3-.3-.7,0-.2,0-.4.2-.6.1-.2.3-.3.5-.3.8,0,1.6,0,2.4,0,.7,0,1.5,0,2.3,0h11.3c.3,0,.5,0,.7.2.2.1.3.4.3.7v5.5c.1.3,0,.5-.3.6-.2.1-.5.2-.7.2s-.6,0-.8-.2c-.2-.1-.4-.3-.4-.5-.2-1.2-.4-2.1-.6-2.8-.2-.7-.6-1.2-1.1-1.6-.5-.3-1.2-.5-2.1-.5h-4.3v10.1h7c.2,0,.4.1.5.3.1.2.2.4.2.6s0,.4-.2.5c-.1.2-.3.3-.5.3h-7v6.7c0,.5,0,1,.2,1.4,0,.5.3.8.6,1.1s.9.4,1.7.4.5,0,.7,0c.2,0,.3.3.3.7,0,.2,0,.4-.2.6-.1.2-.3.3-.5.3-1.7,0-3.3-.1-4.8-.1s-1.5,0-2.3,0c-.8,0-1.5,0-2.4,0Z"/>
    <path class="cls-2" d="M56.3,157.6c-.2,0-.4,0-.5-.3-.1-.2-.2-.4-.2-.6,0-.4.1-.7.3-.7.2,0,.4,0,.7,0,.8,0,1.4-.1,1.8-.4.3-.3.6-.7.6-1.1,0-.5.1-.9.1-1.4v-15.5c0-.5,0-1-.1-1.4,0-.5-.3-.8-.6-1.1-.3-.3-.9-.4-1.8-.4s-.5,0-.7,0c-.2,0-.3-.3-.3-.7,0-.2,0-.4.2-.6.1-.2.3-.3.5-.3.9,0,1.7,0,2.4,0,.7,0,1.5,0,2.3,0h12.2c.3,0,.5,0,.7.2.2.1.3.4.3.7v5.5c.1.3,0,.5-.3.6s-.5.2-.7.2-.5,0-.8-.2c-.2-.1-.4-.3-.4-.5-.2-1.2-.4-2.1-.6-2.8-.2-.7-.6-1.2-1.1-1.6-.5-.3-1.2-.5-2.1-.5h-5.2v9.9h7.1c.2,0,.4.1.4.3,0,.2.1.4.1.6s0,.4-.1.5c0,.2-.2.3-.4.3h-7.1v7.4c0,.3,0,.7.2,1.1s.3.7.7,1c.4.3,1,.4,1.9.4h3.6c.9,0,1.6-.2,2.1-.4.5-.3.9-.7,1.2-1.4.3-.7.6-1.5.9-2.7.1-.3.3-.4.5-.5.2,0,.5,0,.8,0,.2,0,.4.1.6.3.2.2.3.4.3.6l-.8,4.9c0,.4-.2.6-.4.7-.2,0-.4.1-.8.1h-12.9c-.8,0-1.5,0-2.3,0-.7,0-1.5,0-2.4,0Z"/>
    <path class="cls-2" d="M80.4,157.6c-.3,0-.4,0-.5-.3-.1-.2-.2-.4-.2-.6,0-.4.1-.7.3-.7.2,0,.4,0,.7,0,.8,0,1.4-.1,1.8-.4.3-.3.6-.7.6-1.1,0-.5.1-.9.1-1.4v-15.4c0-.5,0-1-.1-1.4,0-.5-.3-.9-.6-1.2-.3-.3-.9-.4-1.8-.4s-.5,0-.7,0c-.2,0-.3-.3-.3-.7,0-.2,0-.4.2-.6.1-.2.3-.3.5-.3.8,0,1.6,0,2.4,0,.7,0,1.5,0,2.3,0h6.7c2.1,0,3.8.4,5.1,1,1.3.6,2.3,1.4,2.9,2.4.6,1,.9,2,.9,3s-.6,2.7-1.7,3.9c-1.1,1.2-2.7,2.1-4.7,2.6,1,1.6,2,3.1,3,4.7,1,1.6,2.2,3,3.5,4.4.4.3.7.5,1.1.7.4.2.8.3,1.3.4.2,0,.4,0,.6,0s.3.3.4.7c0,.2,0,.4-.2.6-.1.2-.3.3-.5.3-.5,0-1,0-1.3,0-.3,0-.6,0-1,0-.3,0-.7,0-1.2,0-1.1-.2-2-.6-2.7-1.1s-1.5-1.3-2.2-2.3c-.7-1-1.4-2-2-3-.6-1-1.2-2-1.8-3-.3-.5-.7-.9-1-1.2-.4-.2-1-.4-2-.4h-1.1v6.4c0,.5,0,1,.2,1.4,0,.5.3.8.6,1.1s.9.4,1.7.4.5,0,.7,0c.2,0,.3.3.3.7,0,.2,0,.4-.2.6-.1.2-.3.3-.5.3-1.7,0-3.3-.1-4.9-.1s-1.5,0-2.3,0c-.7,0-1.5,0-2.3,0ZM87.1,145.1h3.4c1.3,0,2.4-.2,3.1-.5.8-.4,1.3-.8,1.7-1.4s.6-1.2.8-1.8c.1-.6.2-1.2.2-1.7,0-.9-.2-1.7-.6-2.5-.4-.8-1-1.5-2-2-.9-.5-2.3-.8-4-.8s-1.9.2-2.2.6c-.4.4-.5,1.3-.5,2.6v7.5Z"/>
    <path class="cls-2" d="M107.6,157.6c-.3,0-.4,0-.5-.3-.1-.2-.2-.4-.2-.6,0-.4.1-.7.3-.7.2,0,.4,0,.7,0,.8,0,1.4-.1,1.7-.4s.5-.7.6-1.1c0-.5.1-.9.1-1.4v-15.5c0-1.2-.1-2-.5-2.3-.4-.3-1.1-.6-2-.8-.4,0-.6-.1-.8-.2-.1,0-.2-.3-.2-.7s.2-.7.5-.7.7,0,1.1,0c1.5,0,2.6.1,3.5.4s1.7.7,2.4,1.2c.7.6,1.4,1.4,2.2,2.5l10.7,14h.1v-13.4c0-.5-.1-1-.2-1.4,0-.5-.3-.8-.6-1.1-.3-.3-.9-.4-1.7-.4s-.5,0-.7,0c-.2,0-.3-.3-.4-.7,0-.2,0-.4.2-.6.1-.2.3-.3.5-.3.6,0,1,0,1.4,0,.4,0,.7,0,1.1,0,.4,0,.8,0,1.3,0s.9,0,1.3,0c.3,0,.7,0,1,0,.4,0,.8,0,1.3,0,.3,0,.4,0,.5.3.1.2.2.4.2.6,0,.4-.1.7-.3.7-.2,0-.4,0-.7,0-.8,0-1.4.2-1.7.4-.3.3-.5.7-.6,1.1,0,.5-.1.9-.1,1.4v19.7c-.1.2-.2.3-.4.4-.2,0-.4,0-.6,0-.5,0-.9-.2-1.1-.5l-14.7-19.7h-.1v15.5c.1.5.1,1,.2,1.4,0,.5.3.8.6,1.1s.9.4,1.7.4.5,0,.7,0c.2,0,.3.3.3.7,0,.2,0,.4-.2.6s-.3.3-.5.3c-.5,0-1,0-1.4,0-.4,0-.7,0-1.1,0-.4,0-.8,0-1.3,0s-.9,0-1.3,0c-.3,0-.7,0-1,0-.3,0-.8,0-1.4,0Z"/>
    <path class="cls-2" d="M144.9,158.3c-2.7,0-4.8-.5-6.2-1.4-1.5-.9-2.2-2.3-2.2-4.2s.3-1.7,1-2.3c.6-.6,1.5-.9,2.5-.9.7,0,1.2.2,1.4.5.3.3.4.5.4.7s-.1.1-.4.3c-.2.1-.5.3-.7.6s-.4.8-.4,1.4c0,1.2.4,2.1,1.1,2.8s1.9,1,3.5,1,2.1-.2,2.9-.6c.8-.4,1.4-1,1.8-1.7.4-.7.6-1.4.6-2.1,0-1.1-.3-2-.9-2.7s-1.4-1.3-2.4-1.8c-1-.5-2.1-1-3.2-1.5-1.1-.5-2.2-1-3.2-1.6-1-.6-1.8-1.3-2.5-2.2-.7-.9-1-2-1-3.4,0-1.6.3-3,1.1-4,.7-1,1.7-1.8,3-2.3,1.3-.5,2.7-.7,4.3-.7s2.3.2,3.5.5,2.1.9,2.8,1.6c.7.7,1.1,1.7,1.1,2.8s-.3,1.7-1,2.3-1.5.9-2.5.9c-.7,0-1.2-.2-1.4-.5-.3-.3-.4-.5-.4-.7s.2-.2.5-.3c.3-.1.6-.3.9-.6s.5-.7.5-1.3c0-1-.4-1.7-1.1-2.3-.8-.5-1.7-.8-2.8-.8-1.7,0-2.9.4-3.7,1.2-.8.8-1.2,1.7-1.2,2.7s.3,1.7.8,2.3c.5.6,1.3,1.2,2.3,1.8,1.2.6,2.4,1.2,3.5,1.7,1.2.5,2.3,1.1,3.3,1.8,1,.7,1.9,1.5,2.5,2.4s.9,2.2.9,3.8-.4,2.5-1.2,3.5c-.8,1-1.9,1.9-3.3,2.5-1.4.6-2.9.9-4.6.9Z"/>
    <path class="cls-2" d="M170.8,158.3c-2.2,0-4.2-.5-6-1.6-1.8-1-3.3-2.5-4.4-4.4-1.1-1.9-1.7-4.2-1.7-6.9s.5-5,1.6-7c1-2,2.5-3.5,4.4-4.6,1.9-1.1,4.2-1.7,6.8-1.7s1.9,0,2.9.3c1,.2,1.9.5,2.8.9.9.4,1.6,1,2.1,1.7.5.7.8,1.6.8,2.6,0,1.1-.3,2.1-1,2.9-.7.8-1.7,1.3-3,1.3s-1.3-.2-1.7-.6c-.3-.4-.5-.7-.4-.8,0,0,.2-.2.5-.4.3-.2.6-.5,1-.9.3-.4.5-.9.5-1.6,0-1.2-.4-2.1-1.2-2.8-.8-.7-1.9-1-3.3-1s-3,.4-4.2,1.3c-1.2.9-2.2,2.2-2.9,3.9-.7,1.7-1.1,3.8-1.1,6.3s.4,4,1.1,5.7c.7,1.7,1.8,3.1,3.1,4.1,1.3,1,2.9,1.5,4.7,1.5s2.6-.3,3.6-.9c1-.6,1.9-1.5,2.7-2.8.2-.4.6-.5,1.2-.1.2.2.4.3.5.6.1.2.1.4,0,.7-1,1.2-1.9,2.2-2.8,2.8s-1.8,1.1-2.9,1.3c-1,.2-2.3.3-3.7.3Z"/>
    <path class="cls-2" d="M183,157.6c-.3,0-.4,0-.5-.3-.1-.2-.2-.4-.2-.6,0-.4.1-.7.3-.7.2,0,.4,0,.7,0,.7,0,1.2-.1,1.6-.4.4-.3.7-.7.9-1.1.2-.5.4-.9.6-1.4l6.8-16.1c.3-.6.3-1.1.2-1.4-.2-.3-.4-.6-.8-.7-.4-.1-.8-.3-1.2-.3-.4,0-.7-.1-.8-.2-.1,0-.2-.3-.2-.7s.2-.7.5-.7.7,0,1.1,0c1.1,0,2,.1,2.7.3.8.2,1.4.6,1.9,1.2.5.6,1.1,1.5,1.5,2.6l6.6,16.1c.2.4.4.9.6,1.4.2.5.5.9.8,1.2s.8.5,1.3.5c.3,0,.5,0,.7,0,.2,0,.3.3.3.7,0,.2,0,.4-.2.6-.1.2-.3.3-.5.3-.8,0-1.6,0-2.2,0-.6,0-1.3,0-2.1,0-1.5,0-3.1,0-4.8.1-.3,0-.4,0-.5-.3-.1-.2-.2-.4-.2-.6,0-.4.1-.7.3-.7.2,0,.4,0,.7,0,1.3,0,2-.2,2.1-.7.1-.5,0-1.2-.4-2.3l-1.3-3.2h-9.6c-.4,1-.7,1.7-.8,2.1-.2.4-.3.7-.3.9,0,.1,0,.2,0,.2-.3.9-.4,1.5-.4,2,0,.4.2.7.6.8.4.1,1.2.2,2.2.2s.5,0,.7,0c.2,0,.3.3.3.7,0,.2,0,.4-.2.6-.1.2-.3.3-.5.3-.8,0-1.6,0-2.2,0-.6,0-1.3,0-2.1,0s-1,0-1.3,0c-.4,0-.7,0-1.1,0-.4,0-.8,0-1.4,0ZM190.4,148h8.2l-3.9-10h-.1l-4.1,10Z"/>
    <path class="cls-2" d="M209.9,157.6c-.2,0-.4,0-.5-.3s-.2-.4-.2-.6c0-.4.1-.7.3-.7.2,0,.4,0,.7,0,.8,0,1.4-.1,1.8-.4.3-.3.6-.7.6-1.1,0-.5.1-.9.1-1.4v-15.5c0-.5,0-1-.1-1.4,0-.5-.3-.8-.6-1.1-.3-.3-.9-.4-1.8-.4s-.5,0-.7,0c-.2,0-.3-.3-.3-.7,0-.2,0-.4.2-.6s.3-.3.5-.3c.8,0,1.6,0,2.4,0,.8,0,1.5,0,2.3,0h5.9c.5,0,1.1,0,1.9.1s1.6.2,2.5.5c.9.2,1.7.6,2.6,1.1.8.5,1.5,1.2,2,2.1.5.9.8,1.9.8,3.2s-.3,2.3-.8,3.3c-.6,1-1.3,1.8-2.2,2.5-.9.7-2,1.2-3.1,1.6-1.2.4-2.3.6-3.5.6s-1.2,0-1.9-.1c-.7,0-1.4-.2-2-.5v5.6c0,.5,0,1,.2,1.4,0,.5.3.8.6,1.1s.9.4,1.7.4.5,0,.7,0c.2,0,.3.3.3.7,0,.2,0,.4-.2.6-.1.2-.3.3-.5.3-1.7,0-3.3-.1-4.9-.1s-1.5,0-2.3,0c-.7,0-1.5,0-2.4,0ZM219.4,146.2c.6,0,1.3,0,2-.3.7-.2,1.5-.5,2.1-1,.7-.5,1.3-1.1,1.7-1.9.4-.8.7-1.8.7-3s-.3-2.4-.8-3.1c-.5-.8-1.2-1.3-1.9-1.7-.8-.4-1.5-.6-2.3-.7-.8-.1-1.4-.2-1.8-.2s-1.1,0-1.5.2c-.4.1-.6.4-.8.8-.1.4-.2,1.1-.2,2v8.4c.3.1.6.2,1.1.3.5,0,1,.1,1.6.1Z"/>
    <path class="cls-2" d="M234.2,157.6c-.2,0-.4,0-.5-.3-.1-.2-.2-.4-.2-.6,0-.4.1-.7.3-.7.2,0,.4,0,.7,0,.8,0,1.4-.1,1.8-.4.3-.3.6-.7.6-1.1,0-.5.1-.9.1-1.4v-15.5c0-.5,0-1-.1-1.4,0-.5-.3-.8-.6-1.1-.3-.3-.9-.4-1.8-.4s-.5,0-.7,0c-.2,0-.3-.3-.3-.7,0-.2,0-.4.2-.6.1-.2.3-.3.5-.3.9,0,1.7,0,2.4,0,.7,0,1.5,0,2.3,0h12.2c.3,0,.5,0,.7.2.2.1.3.4.3.7v5.5c.1.3,0,.5-.3.6s-.5.2-.7.2-.5,0-.8-.2c-.2-.1-.4-.3-.4-.5-.2-1.2-.4-2.1-.6-2.8-.2-.7-.6-1.2-1.1-1.6-.5-.3-1.2-.5-2.1-.5h-5.2v9.9h7.1c.2,0,.4.1.4.3,0,.2.1.4.1.6s0,.4-.1.5c0,.2-.2.3-.4.3h-7.1v7.4c0,.3,0,.7.2,1.1s.3.7.7,1c.4.3,1,.4,1.9.4h3.6c.9,0,1.6-.2,2.1-.4.5-.3.9-.7,1.2-1.4.3-.7.6-1.5.9-2.7.1-.3.3-.4.5-.5.2,0,.5,0,.8,0,.2,0,.4.1.6.3.2.2.3.4.3.6l-.8,4.9c0,.4-.2.6-.4.7-.2,0-.4.1-.8.1h-12.9c-.8,0-1.5,0-2.3,0-.7,0-1.5,0-2.4,0Z"/>
    <path class="cls-3" d="M69.3,192.4c0,.3-.1.6-.4.8-.2.2-.5.3-.8.3s-.6-.1-.8-.3c-.2-.2-.3-.5-.3-.8v-13.2c0-.3.1-.6.3-.8.2-.2.5-.3.9-.3s.6.1.8.3c.2.2.3.5.3.8v13.2Z"/>
    <path class="cls-3" d="M89.9,178.1c.3,0,.5,0,.7.3.2.2.3.4.3.7v13.2c0,.3-.1.6-.3.8-.2.2-.5.3-.8.3s-.3,0-.5,0-.3-.1-.4-.2l-9-11.7.5-.3v11.3c0,.3,0,.5-.3.7-.2.2-.4.3-.7.3s-.6,0-.7-.3c-.2-.2-.3-.4-.3-.7v-13.3c0-.3.1-.6.3-.8.2-.2.5-.3.8-.3s.3,0,.5,0c.2,0,.3.2.4.3l8.8,11.5-.3.3v-11.2c0-.3,0-.5.3-.7.2-.2.4-.3.7-.3Z"/>
    <path class="cls-3" d="M100,180.2c-.3,0-.6,0-.8-.3-.2-.2-.3-.5-.3-.8s.1-.6.3-.8c.2-.2.5-.3.8-.3h10c.3,0,.6,0,.8.3.2.2.3.5.3.8s-.1.6-.3.8c-.2.2-.5.3-.8.3h-10ZM105,193.5c-.4,0-.6-.1-.9-.3-.2-.2-.3-.5-.3-.8v-13.2h2.4v13.2c0,.3-.1.6-.3.8-.2.2-.5.3-.8.3Z"/>
    <path class="cls-3" d="M120.2,178.1h7.6c.3,0,.6.1.8.3.2.2.3.5.3.8s-.1.6-.3.7c-.2.2-.5.3-.8.3h-6.6l.2-.4v4.9l-.2-.2h5.6c.3,0,.6.1.8.3.2.2.3.5.3.8s-.1.6-.3.7c-.2.2-.5.3-.8.3h-5.6l.2-.2v5.1l-.2-.2h6.6c.3,0,.6.1.8.3.2.2.3.5.3.7s-.1.6-.3.8c-.2.2-.5.3-.8.3h-7.6c-.3,0-.6-.1-.8-.3-.2-.2-.3-.5-.3-.8v-13.2c0-.3.1-.6.3-.8.2-.2.5-.3.8-.3Z"/>
    <path class="cls-3" d="M138.5,193.5c-.4,0-.7-.1-.9-.3-.3-.2-.4-.5-.4-.8v-13.2c0-.3.1-.6.3-.8.2-.2.5-.3.8-.3h6.2c.8,0,1.5.2,2.2.6.7.4,1.2.9,1.6,1.6s.6,1.5.6,2.4-.1,1.1-.4,1.7c-.2.5-.5,1-.9,1.4s-.8.7-1.3.9l-.2-.4c.5.2.9.4,1.2.7s.6.7.8,1.1c.2.4.3.9.3,1.4,0,.5,0,.8.1,1.1,0,.3,0,.5.2.7,0,.2.2.3.4.4.3.1.4.4.5.7,0,.3,0,.6-.2.8-.1.2-.3.3-.5.3-.2,0-.4,0-.6,0-.2,0-.4,0-.5-.2-.2-.1-.5-.4-.7-.6-.2-.3-.4-.6-.6-1.1-.1-.5-.2-1.1-.2-1.9s0-.7-.2-.9c-.1-.3-.3-.5-.5-.6-.2-.2-.4-.3-.7-.4-.3,0-.6-.1-.9-.1h-4.7l.3-.5v5.3c0,.3,0,.6-.3.8-.2.2-.4.3-.7.3ZM139.2,185.7h5.3c.3,0,.7-.1,1-.4.3-.2.6-.6.8-1,.2-.4.3-.9.3-1.5s-.2-1.3-.6-1.8c-.4-.5-.9-.7-1.5-.7h-5.1l.2-.5v6.4l-.3-.5Z"/>
    <path class="cls-3" d="M159.9,192.4c0,.3-.1.6-.4.8-.2.2-.5.3-.8.3s-.6-.1-.8-.3c-.2-.2-.3-.5-.3-.8v-13.2c0-.3.1-.6.3-.8.2-.2.5-.3.9-.3s.6.1.8.3c.2.2.3.5.3.8v13.2Z"/>
    <path class="cls-3" d="M183,185.8c0,1.1-.2,2.2-.5,3.1-.4,1-.9,1.8-1.6,2.5-.7.7-1.5,1.3-2.4,1.7-.9.4-1.9.6-3,.6s-2.1-.2-3-.6c-.9-.4-1.7-1-2.4-1.7s-1.2-1.6-1.6-2.5c-.4-1-.6-2-.6-3.1s.2-2.2.6-3.1c.4-1,.9-1.8,1.6-2.5s1.5-1.3,2.4-1.7c.9-.4,1.9-.6,3-.6s2.1.2,3,.6c.9.4,1.7,1,2.4,1.7.7.7,1.2,1.6,1.6,2.5.4,1,.5,2,.5,3.1ZM180.7,185.8c0-1.1-.2-2.1-.7-2.9-.4-.9-1-1.5-1.8-2s-1.6-.7-2.6-.7-1.9.2-2.6.7c-.8.5-1.4,1.2-1.8,2-.4.9-.6,1.8-.6,2.9s.2,2.1.6,2.9,1,1.5,1.8,2c.8.5,1.6.7,2.6.7s1.9-.2,2.6-.7c.8-.5,1.4-1.2,1.8-2,.4-.9.7-1.8.7-2.9Z"/>
    <path class="cls-3" d="M192.6,193.5c-.4,0-.7-.1-.9-.3-.3-.2-.4-.5-.4-.8v-13.2c0-.3.1-.6.3-.8.2-.2.5-.3.8-.3h6.2c.8,0,1.5.2,2.2.6.7.4,1.2.9,1.6,1.6s.6,1.5.6,2.4-.1,1.1-.4,1.7c-.2.5-.5,1-.9,1.4s-.8.7-1.3.9l-.2-.4c.5.2.9.4,1.2.7s.6.7.8,1.1c.2.4.3.9.3,1.4,0,.5,0,.8.1,1.1,0,.3,0,.5.2.7,0,.2.2.3.4.4.3.1.4.4.5.7,0,.3,0,.6-.2.8-.1.2-.3.3-.5.3-.2,0-.4,0-.6,0-.2,0-.4,0-.5-.2-.2-.1-.5-.4-.7-.6-.2-.3-.4-.6-.6-1.1-.1-.5-.2-1.1-.2-1.9s0-.7-.2-.9c-.1-.3-.3-.5-.5-.6-.2-.2-.4-.3-.7-.4-.3,0-.6-.1-.9-.1h-4.7l.3-.5v5.3c0,.3,0,.6-.3.8-.2.2-.4.3-.7.3ZM193.3,185.7h5.3c.3,0,.7-.1,1-.4.3-.2.6-.6.8-1,.2-.4.3-.9.3-1.5s-.2-1.3-.6-1.8c-.4-.5-.9-.7-1.5-.7h-5.1l.2-.5v6.4l-.3-.5Z"/>
    <path class="cls-3" d="M216.5,193.7c-1.1,0-2-.1-2.8-.4s-1.6-.8-2.4-1.4c-.2-.1-.3-.3-.4-.5,0-.2-.1-.3-.1-.5,0-.3.1-.5.3-.7.2-.2.5-.3.8-.3s.5,0,.7.2c.6.5,1.1.9,1.7,1.2.6.3,1.3.4,2.1.4s1.1,0,1.6-.3c.5-.2.9-.4,1.2-.8.3-.3.4-.7.4-1.1,0-.5-.2-1-.5-1.3-.3-.3-.7-.6-1.3-.9-.6-.2-1.2-.4-2-.6-.7-.1-1.4-.3-2-.6-.6-.2-1.1-.5-1.5-.9-.4-.4-.7-.8-.9-1.3-.2-.5-.3-1.1-.3-1.7s.2-1.7.7-2.3c.5-.7,1.1-1.2,1.9-1.5.8-.4,1.7-.5,2.7-.5s1.8.1,2.6.4c.8.3,1.5.7,2,1.2.4.3.5.6.5,1s-.1.5-.3.7-.5.3-.7.3-.4,0-.5-.2c-.2-.2-.6-.5-.9-.7-.4-.2-.8-.4-1.3-.5-.4-.1-.9-.2-1.3-.2-.7,0-1.2,0-1.7.3s-.8.4-1.1.7c-.2.3-.4.7-.4,1.1s.1.9.4,1.2c.3.3.7.6,1.2.8.5.2,1.1.4,1.8.5.8.2,1.5.4,2.2.6.6.2,1.2.5,1.6.8s.8.8,1,1.3c.2.5.4,1.2.4,1.9s-.2,1.7-.7,2.3c-.5.7-1.2,1.2-2,1.5-.8.4-1.7.6-2.7.6Z"/>
  </g>
  <g>
    <path class="cls-3" d="M98.8,117.5c30.2-9.3,55-34.4,63.4-65,5.9-9.6,10.8-21.8,6.2-32.8,0,0,0-.2,0-.2.1.5.6.9,1.1.9.4,0,.4,0,.6,0-.1,0-.3.2-.4.3-6.5,5.7-9,14.9-8,23.3.3,3,1.1,6,2,9h-.3c-5.6-10.8-4.9-25.8,4.5-34.5,1.2-1.1,2.6-1.2,3.2,0,5.5,11.7.3,25.2-6.4,35.3-6.4,21.7-22.8,43-43.8,54.7-6.9,4-14.2,7.3-21.9,9.3,0,0,0-.3,0-.3h0Z"/>
    <path class="cls-3" d="M160.3,63.1c12.8,1.7,20.3-1.6,27.9-12,0,0,.8,2.1.8,2.1-5.7-.6-11.3,0-16.8,1.4-3.4.9-6.6,2.1-9.8,3.7,0,0-.2-.2-.2-.2,7.1-6.8,17.7-9.4,27.2-7.4,0,0,2.4.4,2.4.4l-1.6,1.7c-5.8,6.8-12.1,11.8-21.6,11.6-2.8,0-5.6-.5-8.3-1v-.3h0Z"/>
    <path class="cls-3" d="M155.1,71.6c8.4-5.1,20.3-7.5,28.6-.7,0,0-1.5,0-1.5,0,0-.6,2.1-.2,1.9.4.2.4,0,1-.3,1.2-8,8.7-21.5,9.3-32,5.6,0,0,0-.3,0-.3,2.8,0,5.5.1,8.2,0,7.5-.4,16.3-1.4,21.9-6.7-.1,0-.3.7-.1,1-.2.7,2,1,1.9.4h-1.5c-5.4-4.9-13.3-5.1-20.1-3.3-2.3.6-4.7,1.5-6.8,2.6l-.2-.3h0Z"/>
    <path class="cls-3" d="M145.8,86.3c4.9-3.2,11.3-3.6,16.9-2.3,3.9.8,7.4,2.7,10.8,4.5-.3.4-.9,1.3-1.3,1.6-.9.8-2,1.6-3.1,2.2-6,3.6-13.5,5-20.2,2.9-2.7-.7-5.2-2.1-7.4-3.6v-.3c5.2,1.5,10.2,2.4,15.4,1.8,4.8-.6,9.9-1.8,13.8-4.8,0,0,.4,1.6.4,1.6-7.2-4.9-17.1-7.6-25.2-3.4,0,0-.2-.2-.2-.2h0Z"/>
    <path class="cls-3" d="M135.3,97.1c9.8-1,22,1,26.6,10.8-1.8.9-3.8,1.4-5.6,1.6-4.4.7-8.8.9-13.2.5-5.8-.6-11.8-2.1-16.5-5.6,0,0,.1-.3.1-.3,2.7.9,5.5,1.5,8.3,2,5.6.9,11.2,1.1,16.8,1.2,2.6,0,5.7-.1,8.1-.9,0,0-.5,1.5-.5,1.5-3-6.4-10.3-9.1-16.9-10.1-2.3-.3-4.7-.5-7.1-.4v-.3h0Z"/>
    <path class="cls-3" d="M160.1,57.7c.8-7-2.9-13.7-7.7-18.6-.5-.4-1.7-1.6-2.2-2-1.7-1.5-4.5-3.3-6.4-4.6,0,0,1,.1,1,.1.4-.1.2-.3.2.1-.9,7.7,9.3,22.2,13.5,29,0,0-.2.2-.2.2-2.2-1.9-4.3-4-6.2-6.3-3.8-4.5-7.1-9.6-8.7-15.4-.6-2.4-2.2-8.5.8-9.9,0,0,.5-.2.5-.2.1.1,3.5,2.6,3.8,2.8,1.8,1.5,3.7,3.2,5.3,4.9.4.5,1.5,1.9,2,2.4,0,0,1.2,1.7,1.2,1.7,2.9,4.6,4.7,10.3,3.6,15.7,0,0-.3,0-.3,0h0Z"/>
    <path class="cls-3" d="M153.3,74.8c-.2-7.7-3.7-15.4-9.9-20.1-1.9-1.6-4.3-2.7-6.6-3.7,0,0,1.6-.9,1.6-.9,0,0,0,.4,0,.4.4,7.4,2.9,14.6,7.1,20.7,1.4,2.2,3.1,4.1,4.9,6.1l-.2.2c-9.9-5.7-16.3-18-13.9-29.4,2.9,1.5,5.9,2.9,8.3,5.1,6.2,5.2,9.4,13.6,8.9,21.6,0,0-.3,0-.3,0h0Z"/>
    <path class="cls-3" d="M141.4,89.4c-.6-9.9-3.4-21.9-13.1-26.5,0,0,1.4-.3,1.4-.3-.5,1.1-.7,2.3-.8,3.6-.5,9.9,4.9,18.9,10.5,26.8,0,0-.2.2-.2.2-2.3-1.8-4.5-3.9-6.3-6.2-5.5-6.6-8.6-16.1-5.7-24.5.2-.7.8-1.5,1.2-2.1,0,0,.9.5.9.5,7.6,3.9,11,12.6,12,20.6.4,2.7.5,5.3.4,8h-.3Z"/>
    <path class="cls-3" d="M129.3,101.8c-1-10.6-5.5-22-15.2-27.5.2.1.5.2.7.1.2,0,.4-.2.4-.2-.2.3-.3.7-.4,1.1-1.1,7.5,1.6,15.1,4.8,21.8,1.3,2.5,2.7,5,4.2,7.5l-.2.2c-8.2-7.3-13.8-19-11.2-30.1.3-1.2,1.2-3.2,2.8-2.5,2.4,1.6,4.7,3.5,6.5,5.8,3.6,4.5,5.8,9.9,6.9,15.4.6,2.8.9,5.6.9,8.4h-.3Z"/>
  </g>
  <line class="cls-1" x1="34.6" y1="167.4" x2="253.7" y2="167.4"/>
</svg>